<svg xmlns="http://www.w3.org/2000/svg" width="109.151" height="55.219" viewBox="0 0 109.151 55.219">
  <g id="Group_723" data-name="Group 723" transform="translate(-539.398 -3311.177)">
    <rect id="Rectangle_22" data-name="Rectangle 22" width="17.612" height="55.219" transform="translate(539.398 3311.177)" fill="#1a1a1a"/>
    <path id="Path_137" data-name="Path 137" d="M294.937,64.177v38.735a51.735,51.735,0,0,0-6.082-15.28,45.9,45.9,0,0,0-17.3-16.46,59.012,59.012,0,0,0-25.111-6.995h-16.95V119.4H247.1V65.94a57.428,57.428,0,0,1,23.6,6.773,44.171,44.171,0,0,1,16.647,15.833c5.03,8.287,7.583,18.647,7.588,30.792v.058h17.612V64.177Z" transform="translate(336 3247)" fill="#1a1a1a"/>
  </g>
</svg>
